<?xml version="1.0" encoding="utf-8"?>
<!-- Generator: Adobe Illustrator 24.1.0, SVG Export Plug-In . SVG Version: 6.00 Build 0)  -->
<svg version="1.1" id="レイヤー_1" xmlns="http://www.w3.org/2000/svg" xmlns:xlink="http://www.w3.org/1999/xlink" x="0px"
	 y="0px" viewBox="0 0 286 62" style="enable-background:new 0 0 286 62;" xml:space="preserve">
<g>
	<g>
		<g>
			<path d="M0,61V6h7.8v48.2h23.5v6.7H0V61z"/>
			<path d="M70.1,58.9c-4.8,2-9.7,3.1-14.7,3.1c-6.1,0-10.7-1.9-13.9-5.7c-3.2-3.8-4.7-8.9-4.7-15.3c0-6.4,1.5-11.6,4.6-15.5
				c3-3.9,7.5-5.8,13.3-5.8c11.3,0,17,6.7,17,20v2.9H45.2c0,9.3,3.7,13.9,11.1,13.9c3.9,0,8-0.7,12.3-2.2L70.1,58.9z M63.8,37.6
				c0-4-0.7-7.2-2-9.4s-3.7-3.3-7.2-3.3s-5.9,1.1-7.2,3.3c-1.3,2.2-2.1,5.3-2.2,9.4H63.8z"/>
			<path d="M87.4,40.7c0,4.9,0.9,8.8,2.7,11.6c1.8,2.8,4.5,4.2,8,4.2s6.8-0.5,9.8-1.4l1.6,4.8c-3.2,1.4-6.9,2-11,2
				c-13,0-19.5-7.1-19.5-21.2s6.5-21.2,19.5-21.2c4.1,0,7.8,0.7,11,2l-1.6,4.6c-2.8-0.9-6-1.3-9.6-1.3c-3.6,0-6.4,1.4-8.2,4.2
				C88.3,31.9,87.4,35.8,87.4,40.7z"/>
			<path d="M167.7,13.3c-4.7-1.4-8.5-2.1-11.7-2.1c-3.1,0-5.7,0.6-7.8,1.7s-3.7,2.7-4.8,4.8s-1.9,4.4-2.4,6.9s-0.7,5.5-0.7,8.8
				c0,3.3,0.2,6.3,0.7,8.8s1.3,4.9,2.5,6.9c2.3,4.3,6.4,6.5,12.3,6.5c3.1,0,7.2-0.8,12.2-2.4l1.6,5.7c-4.4,1.9-9,2.8-13.8,2.8
				c-15.9,0-23.9-9.5-23.9-28.4s8-28.4,23.9-28.4c4.1,0,8.6,0.9,13.5,2.7L167.7,13.3z"/>
			<path d="M209.3,32.9v18.4c0,1.8,0.2,3,0.5,3.8c0.4,0.8,1.2,1.3,2.4,1.7l-1.1,4.7c-0.4,0.3-1.2,0.4-2.4,0.4s-2.2-0.3-3-0.7
				s-1.5-1.3-2.3-2.6l-1.2-2.1h-1.3c-2.8,3.7-6.6,5.5-11.5,5.5c-4,0-7.2-1.1-9.6-3.2c-2.4-2.1-3.5-5.2-3.5-9.2s1.3-7,3.9-9
				c2.6-2,6.7-3.2,12.2-3.6l8.9-0.7v-2.6c0-3.1-0.7-5.4-2-6.7c-1.4-1.3-3.6-2-6.8-2s-7.1,0.6-11.8,1.7l-1.4-4.6
				c1.8-0.7,4-1.3,6.7-1.7c2.7-0.5,5.1-0.7,7.1-0.7c5.3,0,9.3,1.1,12,3.2C207.9,24.8,209.3,28.2,209.3,32.9z M201.5,48v-7l-7.5,0.5
				c-6.4,0.5-9.6,3-9.6,7.6c0,4.9,2.5,7.4,7.4,7.4c2.8,0,5.1-0.7,6.9-2C200.6,53.2,201.5,51.1,201.5,48z"/>
			<path d="M226.8,17.3c0-5.5,1.2-9.4,3.5-11.8s6.2-3.6,11.5-3.6c2.1,0,4.3,0.2,6.4,0.5l-0.9,5.1c-1.5-0.2-3.3-0.3-5.5-0.3
				c-4.8,0-7.2,2.9-7.2,8.6v4.6h11.6v5.3h-11.6v35.2h-7.8V25.8h-6v-2.7l6-2.6V17.3z"/>
			<path d="M269,19.5c11.3,0,17,6.7,17,20v2.9h-26.4c0,9.3,3.7,13.9,11.1,13.9c3.9,0,8-0.7,12.3-2.2l1.6,4.7
				c-4.6,1.9-9.4,3-14.4,3.1c-0.1,0-0.2,0-0.2,0c-6.1,0-10.7-1.9-13.9-5.7c-3.2-3.8-4.7-8.9-4.7-15.3c0-6.4,1.5-11.6,4.6-15.5
				C258.8,21.5,263.2,19.5,269,19.5z M268.9,24.9c-3.5,0-5.9,1.1-7.2,3.3c-1.3,2.2-2.1,5.3-2.2,9.4h18.6c0-4-0.7-7.2-2-9.4
				C274.8,26,272.4,24.9,268.9,24.9z M279.5,5.2c0,1.4-0.9,2.5-2.7,3.3l-13.6,6.4l-2.4-3.5L276.5,0l2.5,3.5
				C279.3,4.1,279.5,4.6,279.5,5.2z"/>
		</g>
	</g>
</g>
</svg>
